<svg xmlns="http://www.w3.org/2000/svg" xmlns:xlink="http://www.w3.org/1999/xlink" width="375" zoomAndPan="magnify" viewBox="0 0 375 374.999991" height="374.999991" preserveAspectRatio="xMidYMid meet" version="1.0"><defs><clipPath id="id1"><path d="M 87 82.59375 L 284 82.59375 L 284 159 L 87 159 Z M 87 82.59375 " clip-rule="nonzero"/></clipPath></defs><path fill="rgb(26.269531%, 69.40918%, 29.40979%)" d="M 187.378906 14.242188 C 91.757812 14.242188 14.242188 91.757812 14.242188 187.378906 C 14.242188 283 91.757812 360.515625 187.378906 360.515625 C 283 360.515625 360.515625 283 360.515625 187.378906 C 360.515625 91.757812 283 14.242188 187.378906 14.242188 " fill-opacity="1" fill-rule="nonzero"/><path fill="rgb(10.978699%, 12.939453%, 12.548828%)" d="M 288.472656 264.144531 L 266.011719 260.722656 C 259.8125 259.777344 255.550781 253.996094 256.496094 247.808594 L 265.789062 187.121094 C 266.738281 180.929688 272.535156 176.679688 278.738281 177.625 L 301.199219 181.050781 C 307.398438 181.996094 311.660156 187.777344 310.714844 193.964844 L 301.417969 254.65625 C 300.472656 260.84375 294.675781 265.09375 288.472656 264.144531 " fill-opacity="1" fill-rule="nonzero"/><path fill="rgb(10.978699%, 12.939453%, 12.548828%)" d="M 85.816406 264.144531 L 108.277344 260.722656 C 114.480469 259.777344 118.738281 253.996094 117.792969 247.808594 L 108.5 187.121094 C 107.550781 180.929688 101.753906 176.679688 95.554688 177.625 L 73.089844 181.050781 C 66.890625 181.996094 62.628906 187.777344 63.578125 193.964844 L 72.871094 254.65625 C 73.820312 260.84375 79.613281 265.09375 85.816406 264.144531 " fill-opacity="1" fill-rule="nonzero"/><path fill="rgb(10.978699%, 12.939453%, 12.548828%)" d="M 290.246094 195.117188 L 276.964844 195.117188 C 276.964844 144.867188 235.988281 103.984375 185.621094 103.984375 C 135.253906 103.984375 94.277344 144.867188 94.277344 195.117188 L 80.996094 195.117188 C 80.996094 137.558594 127.929688 90.738281 185.621094 90.738281 C 243.3125 90.738281 290.246094 137.558594 290.246094 195.117188 " fill-opacity="1" fill-rule="nonzero"/><g clip-path="url(#id1)"><path fill="rgb(10.978699%, 12.939453%, 12.548828%)" d="M 270.507812 158.046875 C 265.925781 158.046875 261.46875 155.675781 259.007812 151.433594 C 243.890625 125.359375 215.769531 109.160156 185.621094 109.160156 C 155.46875 109.160156 127.347656 125.359375 112.230469 151.433594 C 108.5625 157.761719 100.441406 159.925781 94.101562 156.265625 C 87.757812 152.605469 85.589844 144.503906 89.257812 138.175781 C 98.863281 121.613281 112.671875 107.722656 129.195312 98.003906 C 146.234375 87.984375 165.746094 82.6875 185.621094 82.6875 C 205.496094 82.6875 225.007812 87.984375 242.042969 98.003906 C 258.566406 107.722656 272.375 121.613281 281.980469 138.175781 C 285.648438 144.503906 283.480469 152.605469 277.136719 156.265625 C 275.046875 157.472656 272.761719 158.042969 270.507812 158.046875 " fill-opacity="1" fill-rule="nonzero"/></g><path fill="rgb(10.978699%, 12.939453%, 12.548828%)" d="M 114.664062 227.15625 L 113.214844 227.15625 C 112.558594 227.15625 112.027344 226.625 112.027344 225.972656 L 112.027344 207.898438 C 112.027344 207.242188 112.558594 206.710938 113.214844 206.710938 L 114.664062 206.710938 C 115.320312 206.710938 115.851562 207.242188 115.851562 207.898438 L 115.851562 225.972656 C 115.851562 226.625 115.320312 227.15625 114.664062 227.15625 " fill-opacity="1" fill-rule="nonzero"/><path fill="rgb(10.978699%, 12.939453%, 12.548828%)" d="M 121.25 244.382812 L 120.574219 244.382812 C 119.707031 244.382812 119 243.679688 119 242.8125 L 119 191.058594 C 119 190.191406 119.707031 189.488281 120.574219 189.488281 L 121.25 189.488281 C 122.121094 189.488281 122.824219 190.191406 122.824219 191.058594 L 122.824219 242.8125 C 122.824219 243.679688 122.121094 244.382812 121.25 244.382812 " fill-opacity="1" fill-rule="nonzero"/><path fill="rgb(10.978699%, 12.939453%, 12.548828%)" d="M 128.222656 238.25 L 127.542969 238.25 C 126.675781 238.25 125.972656 237.546875 125.972656 236.679688 L 125.972656 197.191406 C 125.972656 196.324219 126.675781 195.621094 127.542969 195.621094 L 128.222656 195.621094 C 129.089844 195.621094 129.796875 196.324219 129.796875 197.191406 L 129.796875 236.679688 C 129.796875 237.546875 129.089844 238.25 128.222656 238.25 " fill-opacity="1" fill-rule="nonzero"/><path fill="rgb(10.978699%, 12.939453%, 12.548828%)" d="M 135.367188 231.109375 L 134.34375 231.109375 C 133.570312 231.109375 132.945312 230.484375 132.945312 229.714844 L 132.945312 204.15625 C 132.945312 203.386719 133.570312 202.761719 134.34375 202.761719 L 135.367188 202.761719 C 136.140625 202.761719 136.769531 203.386719 136.769531 204.15625 L 136.769531 229.714844 C 136.769531 230.484375 136.140625 231.109375 135.367188 231.109375 " fill-opacity="1" fill-rule="nonzero"/><path fill="rgb(10.978699%, 12.939453%, 12.548828%)" d="M 142.167969 237.273438 L 141.488281 237.273438 C 140.621094 237.273438 139.917969 236.570312 139.917969 235.703125 L 139.917969 198.167969 C 139.917969 197.300781 140.621094 196.597656 141.488281 196.597656 L 142.167969 196.597656 C 143.035156 196.597656 143.738281 197.300781 143.738281 198.167969 L 143.738281 235.703125 C 143.738281 236.570312 143.035156 237.273438 142.167969 237.273438 " fill-opacity="1" fill-rule="nonzero"/><path fill="rgb(10.978699%, 12.939453%, 12.548828%)" d="M 149.136719 241.386719 L 148.460938 241.386719 C 147.59375 241.386719 146.886719 240.683594 146.886719 239.816406 L 146.886719 194.054688 C 146.886719 193.1875 147.59375 192.484375 148.460938 192.484375 L 149.136719 192.484375 C 150.007812 192.484375 150.710938 193.1875 150.710938 194.054688 L 150.710938 239.816406 C 150.710938 240.683594 150.007812 241.386719 149.136719 241.386719 " fill-opacity="1" fill-rule="nonzero"/><path fill="rgb(10.978699%, 12.939453%, 12.548828%)" d="M 155.925781 256.007812 L 155.617188 256.007812 C 154.648438 256.007812 153.859375 255.222656 153.859375 254.253906 L 153.859375 179.617188 C 153.859375 178.648438 154.648438 177.863281 155.617188 177.863281 L 155.925781 177.863281 C 156.894531 177.863281 157.683594 178.648438 157.683594 179.617188 L 157.683594 254.253906 C 157.683594 255.222656 156.894531 256.007812 155.925781 256.007812 " fill-opacity="1" fill-rule="nonzero"/><path fill="rgb(10.978699%, 12.939453%, 12.548828%)" d="M 162.898438 243.558594 L 162.589844 243.558594 C 161.617188 243.558594 160.832031 242.773438 160.832031 241.804688 L 160.832031 192.066406 C 160.832031 191.097656 161.617188 190.3125 162.589844 190.3125 L 162.898438 190.3125 C 163.867188 190.3125 164.65625 191.097656 164.65625 192.066406 L 164.65625 241.804688 C 164.65625 242.773438 163.867188 243.558594 162.898438 243.558594 " fill-opacity="1" fill-rule="nonzero"/><path fill="rgb(10.978699%, 12.939453%, 12.548828%)" d="M 169.871094 247.476562 L 169.5625 247.476562 C 168.589844 247.476562 167.804688 246.691406 167.804688 245.722656 L 167.804688 188.148438 C 167.804688 187.179688 168.589844 186.394531 169.5625 186.394531 L 169.871094 186.394531 C 170.839844 186.394531 171.625 187.179688 171.625 188.148438 L 171.625 245.722656 C 171.625 246.691406 170.839844 247.476562 169.871094 247.476562 " fill-opacity="1" fill-rule="nonzero"/><path fill="rgb(10.978699%, 12.939453%, 12.548828%)" d="M 177.324219 228.757812 L 176.050781 228.757812 C 175.347656 228.757812 174.773438 228.1875 174.773438 227.484375 L 174.773438 206.386719 C 174.773438 205.679688 175.347656 205.109375 176.050781 205.109375 L 177.324219 205.109375 C 178.027344 205.109375 178.597656 205.679688 178.597656 206.386719 L 178.597656 227.484375 C 178.597656 228.1875 178.027344 228.757812 177.324219 228.757812 " fill-opacity="1" fill-rule="nonzero"/><path fill="rgb(10.978699%, 12.939453%, 12.548828%)" d="M 184 234.851562 L 183.320312 234.851562 C 182.449219 234.851562 181.746094 234.152344 181.746094 233.285156 L 181.746094 200.585938 C 181.746094 199.71875 182.449219 199.015625 183.320312 199.015625 L 184 199.015625 C 184.867188 199.015625 185.570312 199.71875 185.570312 200.585938 L 185.570312 233.285156 C 185.570312 234.152344 184.867188 234.851562 184 234.851562 " fill-opacity="1" fill-rule="nonzero"/><path fill="rgb(10.978699%, 12.939453%, 12.548828%)" d="M 190.785156 243.125 L 190.476562 243.125 C 189.507812 243.125 188.71875 242.339844 188.71875 241.367188 L 188.71875 192.5 C 188.71875 191.535156 189.507812 190.746094 190.476562 190.746094 L 190.785156 190.746094 C 191.753906 190.746094 192.542969 191.535156 192.542969 192.5 L 192.542969 241.367188 C 192.542969 242.339844 191.753906 243.125 190.785156 243.125 " fill-opacity="1" fill-rule="nonzero"/><path fill="rgb(10.978699%, 12.939453%, 12.548828%)" d="M 197.757812 252.527344 L 197.449219 252.527344 C 196.476562 252.527344 195.691406 251.742188 195.691406 250.769531 L 195.691406 183.097656 C 195.691406 182.128906 196.476562 181.347656 197.449219 181.347656 L 197.757812 181.347656 C 198.726562 181.347656 199.515625 182.128906 199.515625 183.097656 L 199.515625 250.769531 C 199.515625 251.742188 198.726562 252.527344 197.757812 252.527344 " fill-opacity="1" fill-rule="nonzero"/><path fill="rgb(10.978699%, 12.939453%, 12.548828%)" d="M 204.726562 246.082031 L 204.421875 246.082031 C 203.449219 246.082031 202.664062 245.296875 202.664062 244.328125 L 202.664062 189.542969 C 202.664062 188.574219 203.449219 187.785156 204.421875 187.785156 L 204.726562 187.785156 C 205.699219 187.785156 206.488281 188.574219 206.488281 189.542969 L 206.488281 244.328125 C 206.488281 245.296875 205.699219 246.082031 204.726562 246.082031 " fill-opacity="1" fill-rule="nonzero"/><path fill="rgb(10.978699%, 12.939453%, 12.548828%)" d="M 211.699219 240.6875 L 211.390625 240.6875 C 210.421875 240.6875 209.636719 239.902344 209.636719 238.933594 L 209.636719 194.9375 C 209.636719 193.96875 210.421875 193.1875 211.390625 193.1875 L 211.699219 193.1875 C 212.671875 193.1875 213.457031 193.96875 213.457031 194.9375 L 213.457031 238.933594 C 213.457031 239.902344 212.671875 240.6875 211.699219 240.6875 " fill-opacity="1" fill-rule="nonzero"/><path fill="rgb(10.978699%, 12.939453%, 12.548828%)" d="M 218.917969 233.546875 L 218.121094 233.546875 C 217.28125 233.546875 216.605469 232.871094 216.605469 232.039062 L 216.605469 201.832031 C 216.605469 201 217.28125 200.324219 218.121094 200.324219 L 218.917969 200.324219 C 219.753906 200.324219 220.429688 201 220.429688 201.832031 L 220.429688 232.039062 C 220.429688 232.871094 219.753906 233.546875 218.917969 233.546875 " fill-opacity="1" fill-rule="nonzero"/><path fill="rgb(10.978699%, 12.939453%, 12.548828%)" d="M 225.644531 242.6875 L 225.335938 242.6875 C 224.363281 242.6875 223.578125 241.902344 223.578125 240.933594 L 223.578125 192.9375 C 223.578125 191.96875 224.363281 191.183594 225.335938 191.183594 L 225.644531 191.183594 C 226.613281 191.183594 227.402344 191.96875 227.402344 192.9375 L 227.402344 240.933594 C 227.402344 241.902344 226.613281 242.6875 225.644531 242.6875 " fill-opacity="1" fill-rule="nonzero"/><path fill="rgb(10.978699%, 12.939453%, 12.548828%)" d="M 232.617188 253.570312 L 232.308594 253.570312 C 231.335938 253.570312 230.550781 252.785156 230.550781 251.816406 L 230.550781 182.054688 C 230.550781 181.085938 231.335938 180.300781 232.308594 180.300781 L 232.617188 180.300781 C 233.585938 180.300781 234.371094 181.085938 234.371094 182.054688 L 234.371094 251.816406 C 234.371094 252.785156 233.585938 253.570312 232.617188 253.570312 " fill-opacity="1" fill-rule="nonzero"/><path fill="rgb(10.978699%, 12.939453%, 12.548828%)" d="M 239.585938 247.652344 L 239.28125 247.652344 C 238.308594 247.652344 237.523438 246.863281 237.523438 245.894531 L 237.523438 187.972656 C 237.523438 187.003906 238.308594 186.222656 239.28125 186.222656 L 239.585938 186.222656 C 240.558594 186.222656 241.34375 187.003906 241.34375 187.972656 L 241.34375 245.894531 C 241.34375 246.863281 240.558594 247.652344 239.585938 247.652344 " fill-opacity="1" fill-rule="nonzero"/><path fill="rgb(10.978699%, 12.939453%, 12.548828%)" d="M 246.726562 235.289062 L 246.082031 235.289062 C 245.207031 235.289062 244.492188 234.578125 244.492188 233.703125 L 244.492188 200.167969 C 244.492188 199.292969 245.207031 198.582031 246.082031 198.582031 L 246.726562 198.582031 C 247.605469 198.582031 248.316406 199.292969 248.316406 200.167969 L 248.316406 233.703125 C 248.316406 234.578125 247.605469 235.289062 246.726562 235.289062 " fill-opacity="1" fill-rule="nonzero"/><path fill="rgb(10.978699%, 12.939453%, 12.548828%)" d="M 253.53125 250 L 253.222656 250 C 252.253906 250 251.46875 249.214844 251.46875 248.246094 L 251.46875 185.621094 C 251.46875 184.65625 252.253906 183.871094 253.222656 183.871094 L 253.53125 183.871094 C 254.503906 183.871094 255.289062 184.65625 255.289062 185.621094 L 255.289062 248.246094 C 255.289062 249.214844 254.503906 250 253.53125 250 " fill-opacity="1" fill-rule="nonzero"/><path fill="rgb(10.978699%, 12.939453%, 12.548828%)" d="M 261.019531 228.148438 L 259.679688 228.148438 C 258.996094 228.148438 258.4375 227.59375 258.4375 226.910156 L 258.4375 206.960938 C 258.4375 206.277344 258.996094 205.722656 259.679688 205.722656 L 261.019531 205.722656 C 261.703125 205.722656 262.261719 206.277344 262.261719 206.960938 L 262.261719 226.910156 C 262.261719 227.59375 261.703125 228.148438 261.019531 228.148438 " fill-opacity="1" fill-rule="nonzero"/></svg>
